<svg width="14" height="18" viewBox="0 0 14 18" fill="none" xmlns="http://www.w3.org/2000/svg">
<path fill-rule="evenodd" clip-rule="evenodd" d="M8.62996 9.91917H7.79663V9.08584C7.79663 8.62584 7.42412 8.2525 6.96329 8.2525C6.50246 8.2525 6.12996 8.62584 6.12996 9.08584V9.91917H5.29663C4.83579 9.91917 4.46329 10.2925 4.46329 10.7525C4.46329 11.2125 4.83579 11.5858 5.29663 11.5858H6.12996V12.4192C6.12996 12.8792 6.50246 13.2525 6.96329 13.2525C7.42412 13.2525 7.79663 12.8792 7.79663 12.4192V11.5858H8.62996C9.09079 11.5858 9.46329 11.2125 9.46329 10.7525C9.46329 10.2925 9.09079 9.91917 8.62996 9.91917ZM11.5002 15.7525H2.42604C2.17104 15.7525 1.96354 15.5658 1.96354 15.3358V2.83584C1.96354 2.60584 2.17104 2.41917 2.42604 2.41917H6.96354V5.04417C6.96354 6.35417 7.97771 7.41917 9.22521 7.41917H11.9635V15.3358C11.9635 15.5658 11.756 15.7525 11.5002 15.7525ZM8.63021 3.23417L10.9152 5.7525H9.22521C8.89688 5.7525 8.63021 5.435 8.63021 5.04417V3.23417ZM13.4135 6.02584L8.87687 1.02584C8.71854 0.851669 8.49521 0.752502 8.25937 0.752502H2.42604C1.25187 0.752502 0.296875 1.6875 0.296875 2.83584V15.3358C0.296875 16.4842 1.25187 17.4192 2.42604 17.4192H11.5002C12.6744 17.4192 13.6302 16.4842 13.6302 15.3358V6.58584C13.6302 6.37834 13.5527 6.17917 13.4135 6.02584Z" fill="#8592A3"/>
</svg>
