<svg width="33" height="33" viewBox="0 0 33 33" fill="none" xmlns="http://www.w3.org/2000/svg">
<g clip-path="url(#clip0_3208_13709)">
<path d="M18.7139 32.584H13.5894C12.7334 32.584 12.0371 31.8877 12.0371 31.0317V19.4731H9.04736C8.19141 19.4731 7.49512 18.7766 7.49512 17.9209V12.968C7.49512 12.1121 8.19141 11.4158 9.04736 11.4158H12.0371V8.93555C12.0371 6.47632 12.8093 4.38403 14.27 2.88525C15.7373 1.37964 17.7878 0.583984 20.2 0.583984L24.1082 0.590332C24.9626 0.591797 25.6577 1.28809 25.6577 2.14258V6.74121C25.6577 7.59717 24.9617 8.29346 24.106 8.29346L21.4746 8.29443C20.6721 8.29443 20.4678 8.45532 20.4241 8.50464C20.3521 8.58643 20.2664 8.81763 20.2664 9.45606V11.4155H23.9082C24.1824 11.4155 24.448 11.4832 24.6763 11.6106C25.1687 11.8857 25.4749 12.406 25.4749 12.9683L25.4729 17.9211C25.4729 18.7766 24.7766 19.4729 23.9207 19.4729H20.2664V31.0317C20.2664 31.8877 19.5698 32.584 18.7139 32.584ZM13.9131 30.708H18.3901V18.6333C18.3901 18.0618 18.8552 17.5969 19.4265 17.5969H23.5969L23.5986 13.2917H19.4263C18.855 13.2917 18.3901 12.8269 18.3901 12.2554V9.45606C18.3901 8.72315 18.4646 7.88965 19.0178 7.26318C19.6863 6.50586 20.7397 6.41846 21.4741 6.41846L23.7817 6.41748V2.46582L20.1985 2.45996C16.322 2.45996 13.9131 4.94141 13.9131 8.93555V12.2554C13.9131 12.8267 13.4482 13.2917 12.877 13.2917H9.37109V17.5969H12.877C13.4482 17.5969 13.9131 18.0618 13.9131 18.6333V30.708Z" fill="white"/>
</g>
<defs>
<clipPath id="clip0_3208_13709">
<rect width="31.9375" height="32" fill="white" transform="translate(0.588867 0.646484)"/>
</clipPath>
</defs>
</svg>
