<svg width="36" height="36" viewBox="0 0 36 36" fill="none" xmlns="http://www.w3.org/2000/svg">
<path d="M18 13.7137C17.1523 13.7141 16.3238 13.9657 15.6191 14.4369C14.9145 14.9081 14.3653 15.5776 14.0412 16.3608C13.717 17.1441 13.6323 18.0058 13.7979 18.8372C13.9635 19.6685 14.3718 20.4321 14.9713 21.0314C15.5708 21.6307 16.3346 22.0388 17.166 22.204C17.9974 22.3693 18.8591 22.2843 19.6423 21.9598C20.4254 21.6354 21.0947 21.086 21.5656 20.3811C22.0365 19.6763 22.2879 18.8477 22.2879 18C22.287 16.8632 21.8349 15.7732 21.0309 14.9695C20.2269 14.1658 19.1368 13.7142 18 13.7137ZM28.0213 10.4191C27.8031 9.86612 27.4736 9.36387 27.0533 8.94351C26.6329 8.52315 26.1307 8.19365 25.5777 7.97545C23.8902 7.30929 19.8723 7.45875 18 7.45875C16.1277 7.45875 12.1138 7.30366 10.4215 7.97545C9.86853 8.19365 9.36628 8.52315 8.94592 8.94351C8.52556 9.36387 8.19606 9.86612 7.97786 10.4191C7.3125 12.1066 7.46116 16.1285 7.46116 17.9992C7.46116 19.8699 7.3125 23.887 7.98107 25.5801C8.19928 26.1331 8.52878 26.6353 8.94914 27.0557C9.3695 27.476 9.87175 27.8055 10.4247 28.0237C12.1122 28.6899 16.1301 28.5404 18.0032 28.5404C19.8763 28.5404 23.8886 28.6955 25.5809 28.0237C26.1339 27.8055 26.6361 27.476 27.0565 27.0557C27.4768 26.6353 27.8063 26.1331 28.0246 25.5801C28.6955 23.8926 28.5412 19.8707 28.5412 18C28.5412 16.1293 28.6955 12.113 28.0246 10.4199L28.0213 10.4191ZM18 24.5893C16.6968 24.5893 15.4228 24.2028 14.3392 23.4788C13.2556 22.7548 12.411 21.7256 11.9123 20.5216C11.4136 19.3176 11.2831 17.9927 11.5373 16.7145C11.7916 15.4363 12.4191 14.2622 13.3407 13.3407C14.2622 12.4191 15.4363 11.7916 16.7145 11.5373C17.9927 11.2831 19.3176 11.4136 20.5216 11.9123C21.7256 12.411 22.7548 13.2556 23.4788 14.3392C24.2028 15.4228 24.5893 16.6968 24.5893 18C24.5903 18.8656 24.4206 19.7229 24.0899 20.5229C23.7591 21.3228 23.2738 22.0496 22.6617 22.6617C22.0496 23.2738 21.3228 23.7591 20.5229 24.0899C19.7229 24.4206 18.8656 24.5903 18 24.5893ZM24.8609 12.6723C24.5567 12.6725 24.2592 12.5824 24.0062 12.4135C23.7532 12.2446 23.5559 12.0044 23.4394 11.7234C23.3228 11.4424 23.2923 11.1331 23.3515 10.8347C23.4108 10.5363 23.5572 10.2622 23.7722 10.047C23.9873 9.83184 24.2614 9.68527 24.5597 9.62586C24.8581 9.56645 25.1674 9.59686 25.4485 9.71325C25.7296 9.82964 25.9698 10.0268 26.1389 10.2797C26.3079 10.5327 26.3981 10.8301 26.3981 11.1343C26.399 11.3363 26.3599 11.5365 26.2832 11.7234C26.2065 11.9103 26.0937 12.0802 25.9511 12.2234C25.8086 12.3666 25.6392 12.4803 25.4527 12.5579C25.2662 12.6354 25.0661 12.6754 24.8641 12.6755L24.8609 12.6723ZM32.1429 0H3.85714C2.83416 0 1.85309 0.406377 1.12973 1.12973C0.406376 1.85309 0 2.83416 0 3.85714L0 32.1429C0 33.1658 0.406376 34.1469 1.12973 34.8703C1.85309 35.5936 2.83416 36 3.85714 36H32.1429C33.1658 36 34.1469 35.5936 34.8703 34.8703C35.5936 34.1469 36 33.1658 36 32.1429V3.85714C36 2.83416 35.5936 1.85309 34.8703 1.12973C34.1469 0.406377 33.1658 0 32.1429 0ZM30.7671 23.3036C30.6635 25.3631 30.1934 27.188 28.6899 28.6875C27.1864 30.187 25.3631 30.6667 23.306 30.7647C21.1838 30.8845 14.8211 30.8845 12.6988 30.7647C10.6393 30.6611 8.8208 30.1902 7.31491 28.6875C5.80902 27.1848 5.33571 25.3591 5.23768 23.3036C5.11795 21.1805 5.11795 14.8171 5.23768 12.6964C5.34134 10.6369 5.8058 8.81196 7.31491 7.3125C8.82402 5.81304 10.6473 5.33893 12.6988 5.24089C14.8211 5.12116 21.1838 5.12116 23.306 5.24089C25.3655 5.34455 27.1896 5.81545 28.6899 7.31812C30.1902 8.8208 30.6691 10.6465 30.7671 12.7061C30.8869 14.8211 30.8869 21.1789 30.7671 23.3036Z" fill="black"/>
</svg>
