<svg width="33" height="33" viewBox="0 0 33 33" fill="none" xmlns="http://www.w3.org/2000/svg">
<g clip-path="url(#clip0_3208_13699)">
<path d="M24.5883 0.646484H8.58867C4.18917 0.646484 0.588867 4.24679 0.588867 8.64629V24.6467C0.588867 29.045 4.18917 32.6465 8.58867 32.6465H24.5883C28.9878 32.6465 32.5881 29.045 32.5881 24.6467V8.64629C32.5881 4.24679 28.9878 0.646484 24.5883 0.646484ZM29.9214 24.6467C29.9214 27.5866 27.5298 29.9798 24.5883 29.9798H8.58867C5.64835 29.9798 3.2556 27.5866 3.2556 24.6467V8.64629C3.2556 5.70558 5.64835 3.31322 8.58867 3.31322H24.5883C27.5298 3.31322 29.9214 5.70558 29.9214 8.64629V24.6467Z" fill="white"/>
<path d="M25.2568 9.97939C26.3613 9.97939 27.2567 9.08399 27.2567 7.97944C27.2567 6.8749 26.3613 5.97949 25.2568 5.97949C24.1522 5.97949 23.2568 6.8749 23.2568 7.97944C23.2568 9.08399 24.1522 9.97939 25.2568 9.97939Z" fill="white"/>
<path d="M16.5887 8.64648C12.1696 8.64648 8.58887 12.2276 8.58887 16.6463C8.58887 21.0634 12.1696 24.6469 16.5887 24.6469C21.0065 24.6469 24.5885 21.0634 24.5885 16.6463C24.5885 12.2276 21.0065 8.64648 16.5887 8.64648ZM16.5887 21.9801C13.6435 21.9801 11.2556 19.5922 11.2556 16.6463C11.2556 13.7003 13.6435 11.3132 16.5887 11.3132C19.5338 11.3132 21.9217 13.7003 21.9217 16.6463C21.9217 19.5922 19.5338 21.9801 16.5887 21.9801Z" fill="white"/>
</g>
<defs>
<clipPath id="clip0_3208_13699">
<rect width="32" height="32" fill="white" transform="translate(0.588867 0.646484)"/>
</clipPath>
</defs>
</svg>
