<svg width="36" height="36" viewBox="0 0 36 36" fill="none" xmlns="http://www.w3.org/2000/svg">
<path d="M32.625 0.84388H3.375C2.71134 0.837126 2.0721 1.09392 1.59755 1.55793C1.12301 2.02193 0.851909 2.65523 0.84375 3.31888V32.687C0.853385 33.3497 1.12513 33.9815 1.59952 34.4443C2.0739 34.9071 2.7123 35.1631 3.375 35.1564H32.625C33.2887 35.1616 33.9275 34.904 34.4018 34.4397C34.8761 33.9754 35.1474 33.3422 35.1562 32.6786V3.31044C35.1444 2.64874 34.8719 2.01846 34.3979 1.55658C33.9239 1.09471 33.2868 0.838586 32.625 0.84388ZM11.0166 30.0939H5.92312V13.7054H11.0166V30.0939ZM8.48531 11.4723C7.90112 11.4729 7.32989 11.3001 6.84388 10.976C6.35787 10.6518 5.97892 10.1908 5.75498 9.65125C5.53103 9.11169 5.47215 8.51783 5.58578 7.94479C5.69941 7.37176 5.98044 6.8453 6.39333 6.43201C6.80622 6.01873 7.33241 5.73719 7.90534 5.62302C8.47827 5.50884 9.07218 5.56716 9.61196 5.79059C10.1517 6.01402 10.6131 6.39253 10.9377 6.87823C11.2624 7.36393 11.4356 7.935 11.4356 8.51919C11.4349 8.90748 11.3576 9.29181 11.2081 9.65018C11.0587 10.0086 10.8401 10.3339 10.5647 10.6077C10.2894 10.8815 9.96274 11.0983 9.60352 11.2457C9.2443 11.3931 8.85953 11.4682 8.47125 11.4667L8.48531 11.4723ZM30.0938 30.0939H25.0003V22.1204C25.0003 20.222 24.9666 17.7779 22.3538 17.7779C19.7409 17.7779 19.2966 19.8479 19.2966 21.9967V30.0939H14.2116V13.7054H19.0941V15.9554H19.1616C19.8422 14.6673 21.5016 13.3089 23.9794 13.3089C29.1375 13.2976 30.0938 16.6923 30.0938 21.0939V30.0939Z" fill="black"/>
</svg>
