<svg width="33" height="33" viewBox="0 0 33 33" fill="none" xmlns="http://www.w3.org/2000/svg">
<path d="M1.07715 32.5168H9.36284V10.7285H1.07715V32.5168ZM2.95215 12.6035H7.48784V30.6418H2.95215V12.6035Z" fill="white"/>
<path d="M5.22005 0.775391C2.66637 0.775391 0.588867 2.85295 0.588867 5.40658C0.588867 7.9602 2.66637 10.0378 5.22005 10.0378C7.77374 10.0378 9.85131 7.96027 9.85131 5.40658C9.85131 2.85289 7.77368 0.775391 5.22005 0.775391ZM2.46387 5.40658C2.46387 3.88683 3.70024 2.65039 5.22005 2.65039C6.73987 2.65039 7.9763 3.88677 7.9763 5.40658C7.9763 6.92639 6.73987 8.16283 5.22005 8.16283C3.70024 8.16283 2.46387 6.92633 2.46387 5.40658Z" fill="white"/>
<path d="M32.5687 17.5705C32.2738 13.3296 28.7363 10.0615 24.3506 10.0615C22.3889 10.0615 20.5371 10.7435 19.078 11.9536V10.7286H11.1387V32.517H19.4244V20.6005C19.4244 19.2575 20.517 18.1648 21.86 18.1648C23.203 18.1648 24.2956 19.2575 24.2956 20.601L24.3036 32.517H32.5887V17.5906L32.5687 17.5705ZM17.5494 30.6421H13.0137V12.6037H17.203V15.2816L18.7033 15.2903L18.982 14.8575C20.1602 13.0285 22.1671 11.9366 24.3506 11.9366C27.8404 11.9366 30.6345 14.5992 30.7119 17.9981L30.7137 30.6421H26.1774L26.1706 20.6005C26.1706 18.2236 24.2369 16.2898 21.86 16.2898C19.4832 16.2898 17.5494 18.2236 17.5494 20.6005V30.6421Z" fill="white"/>
</svg>
