<svg width="25" height="24" viewBox="0 0 25 24" fill="none" xmlns="http://www.w3.org/2000/svg">
<path d="M8.96197 11.2931C10.095 10.1601 12.071 10.1601 13.204 11.2931L13.911 12.0001L15.325 10.5861L14.618 9.87906C13.675 8.93506 12.419 8.41406 11.083 8.41406C9.74697 8.41406 8.49097 8.93506 7.54797 9.87906L5.42597 12.0001C4.49027 12.9388 3.96484 14.2101 3.96484 15.5356C3.96484 16.861 4.49027 18.1323 5.42597 19.0711C5.88984 19.5356 6.44094 19.9039 7.04759 20.1548C7.65424 20.4057 8.30449 20.5342 8.96097 20.5331C9.61763 20.5344 10.2681 20.406 10.8749 20.1551C11.4818 19.9042 12.033 19.5358 12.497 19.0711L13.204 18.3641L11.79 16.9501L11.083 17.6571C10.5194 18.2181 9.75664 18.533 8.96147 18.533C8.1663 18.533 7.4035 18.2181 6.83997 17.6571C6.27847 17.0938 5.96318 16.3309 5.96318 15.5356C5.96318 14.7402 6.27847 13.9773 6.83997 13.4141L8.96197 11.2931Z" fill="#8592A3"/>
<path d="M12.496 4.92875L11.789 5.63575L13.203 7.04975L13.91 6.34275C14.4735 5.78174 15.2363 5.46678 16.0315 5.46678C16.8266 5.46678 17.5894 5.78174 18.153 6.34275C18.7145 6.90602 19.0298 7.66892 19.0298 8.46425C19.0298 9.25958 18.7145 10.0225 18.153 10.5857L16.031 12.7067C14.898 13.8397 12.922 13.8397 11.789 12.7067L11.082 11.9997L9.66797 13.4137L10.375 14.1207C11.318 15.0647 12.574 15.5857 13.91 15.5857C15.246 15.5857 16.502 15.0647 17.445 14.1207L19.567 11.9997C20.5027 11.061 21.0281 9.78967 21.0281 8.46425C21.0281 7.13883 20.5027 5.86746 19.567 4.92875C18.6285 3.99256 17.357 3.4668 16.0315 3.4668C14.7059 3.4668 13.4344 3.99256 12.496 4.92875Z" fill="#32475C" fill-opacity="0.54"/>
</svg>
