<svg width="15" height="21" viewBox="0 0 15 21" fill="none" xmlns="http://www.w3.org/2000/svg">
<path d="M14.5898 7.83206V8.82732C14.5879 10.5012 13.9804 12.1184 12.8787 13.3831C11.7769 14.6478 10.2544 15.4754 8.58984 15.7145V18.7799H11.5898V20.7704H3.58984V18.7799H6.58984V15.7145C4.92525 15.4754 3.4028 14.6478 2.30102 13.3831C1.19925 12.1184 0.591815 10.5012 0.589844 8.82732V7.83206H2.58984V8.82732C2.58984 10.1471 3.11663 11.4129 4.05431 12.3461C4.99199 13.2793 6.26376 13.8036 7.58984 13.8036C8.91593 13.8036 10.1877 13.2793 11.1254 12.3461C12.0631 11.4129 12.5898 10.1471 12.5898 8.82732V7.83206H14.5898ZM7.58984 11.8131C8.38549 11.8131 9.14856 11.4985 9.71116 10.9386C10.2738 10.3786 10.5898 9.6192 10.5898 8.82732V3.85102C10.5898 3.05914 10.2738 2.29969 9.71116 1.73975C9.14856 1.17981 8.38549 0.865234 7.58984 0.865234C6.79419 0.865234 6.03113 1.17981 5.46852 1.73975C4.90591 2.29969 4.58984 3.05914 4.58984 3.85102V8.82732C4.58984 9.6192 4.90591 10.3786 5.46852 10.9386C6.03113 11.4985 6.79419 11.8131 7.58984 11.8131Z" fill="white"/>
</svg>
