<svg width="43" height="43" viewBox="0 0 43 43" fill="none" xmlns="http://www.w3.org/2000/svg">
<rect x="0.589844" y="0.30957" width="42" height="41.8009" rx="20.9005" fill="#800000"/>
<path d="M19.5898 25.6881L25.5898 21.2094L19.5898 16.7308V25.6881ZM21.5898 11.2568C16.0698 11.2568 11.5898 15.7156 11.5898 21.2094C11.5898 26.7033 16.0698 31.1621 21.5898 31.1621C27.1098 31.1621 31.5898 26.7033 31.5898 21.2094C31.5898 15.7156 27.1098 11.2568 21.5898 11.2568ZM21.5898 29.1715C17.1798 29.1715 13.5898 25.5985 13.5898 21.2094C13.5898 16.8203 17.1798 13.2474 21.5898 13.2474C25.9998 13.2474 29.5898 16.8203 29.5898 21.2094C29.5898 25.5985 25.9998 29.1715 21.5898 29.1715Z" fill="white"/>
</svg>
