<svg width="25" height="25" viewBox="0 0 25 25" fill="none" xmlns="http://www.w3.org/2000/svg">
<path d="M10.5898 18.0117C12.3648 18.0114 14.0886 17.4171 15.4868 16.3237L19.8828 20.7197L21.2968 19.3057L16.9008 14.9097C17.9948 13.5114 18.5894 11.7872 18.5898 10.0117C18.5898 5.60072 15.0008 2.01172 10.5898 2.01172C6.17884 2.01172 2.58984 5.60072 2.58984 10.0117C2.58984 14.4227 6.17884 18.0117 10.5898 18.0117ZM10.5898 4.01172C13.8988 4.01172 16.5898 6.70272 16.5898 10.0117C16.5898 13.3207 13.8988 16.0117 10.5898 16.0117C7.28084 16.0117 4.58984 13.3207 4.58984 10.0117C4.58984 6.70272 7.28084 4.01172 10.5898 4.01172Z" fill="white"/>
<path d="M12.0017 8.59781C12.3807 8.97781 12.5897 9.4798 12.5897 10.0118H14.5897C14.5906 9.48623 14.4873 8.9657 14.2857 8.48029C14.0842 7.99488 13.7885 7.55423 13.4157 7.1838C11.9017 5.6718 9.27667 5.6718 7.76367 7.1838L9.17567 8.59981C9.93567 7.84181 11.2457 7.84381 12.0017 8.59781Z" fill="white"/>
</svg>
