<svg width="19" height="18" viewBox="0 0 19 18" fill="none" xmlns="http://www.w3.org/2000/svg">
<path d="M13.0898 11.0117H12.2998L12.0198 10.7417C12.9998 9.60172 13.5898 8.12172 13.5898 6.51172C13.5898 2.92172 10.6798 0.0117188 7.08984 0.0117188C3.49984 0.0117188 0.589844 2.92172 0.589844 6.51172C0.589844 10.1017 3.49984 13.0117 7.08984 13.0117C8.69984 13.0117 10.1798 12.4217 11.3198 11.4417L11.5898 11.7217V12.5117L16.5898 17.5017L18.0798 16.0117L13.0898 11.0117ZM7.08984 11.0117C4.59984 11.0117 2.58984 9.00172 2.58984 6.51172C2.58984 4.02172 4.59984 2.01172 7.08984 2.01172C9.57984 2.01172 11.5898 4.02172 11.5898 6.51172C11.5898 9.00172 9.57984 11.0117 7.08984 11.0117Z" fill="#32475C" fill-opacity="0.54"/>
</svg>
