<svg width="212" height="169" viewBox="0 0 212 169" fill="none" xmlns="http://www.w3.org/2000/svg">
<g filter="url(#filter0_d_1756_9917)">
<path d="M0.589844 134.322H36.4918V7.30957H0.589844V134.322ZM50.9348 7.30957V134.322H86.8628V80.9747H109.053V56.812H86.8628V32.7367H111.782V7.30957H50.9348ZM170.67 7.30957V64.5017L150.53 7.30957H120.49V134.322H150.53V76.5811L169.217 134.322H200.711V7.30957H170.67Z" fill="#800000"/>
</g>
<path d="M171.734 17.7433L197.284 0.858382L210.651 27.048L197.293 23.853L196.852 23.7475L196.704 24.1763L172.827 93.4479L172.827 93.4481L170.916 98.9989L168.673 93.6792L168.673 93.679L155.009 61.2303L154.565 60.1769L154.093 61.2176L134.535 104.295L152.605 54.1346L152.605 54.1344L154.481 48.9185L156.678 54.1313L156.679 54.1315L169.495 84.5723L170.096 85.9995L170.443 84.4904L184.955 21.4136L185.066 20.9305L184.584 20.8152L171.734 17.7433Z" fill="white" stroke="#800000"/>
<path d="M0.589844 168.459V141.44H6.6456V168.478L0.589844 168.459Z" fill="white"/>
<path d="M40.3849 168.478H32.5013L19.7728 148.01H19.5775C19.8487 151.627 19.9843 154.203 19.9843 155.738V168.47H14.4316V141.44H22.2542L34.9624 161.705H35.1007C34.9027 158.194 34.8024 155.708 34.7997 154.248V141.44H40.3849V168.478Z" fill="white"/>
<path d="M64.7874 141.44H71.0957L61.0803 168.478H54.2682L44.2773 141.44H50.5815L56.1238 157.529C56.4324 158.479 56.7519 159.586 57.0823 160.849C57.41 162.116 57.6148 162.992 57.6968 163.481C58.0606 161.468 58.5655 159.479 59.2083 157.525L64.7874 141.44Z" fill="white"/>
<path d="M91.8411 168.478H74.5557V141.44H91.8411V146.14H80.9339V152.081H91.0981V156.784H80.9339V163.76H91.8578L91.8411 168.478Z" fill="white"/>
<path d="M115.211 160.987C115.211 163.432 114.264 165.357 112.37 166.762C110.475 168.166 107.835 168.87 104.449 168.872C101.596 168.924 98.7677 168.366 96.1836 167.243V161.912C97.7956 162.607 99.4638 163.183 101.173 163.635C102.393 163.949 103.65 164.117 104.916 164.136C106.276 164.136 107.315 163.895 108.042 163.413C108.403 163.169 108.693 162.844 108.883 162.468C109.073 162.093 109.158 161.679 109.13 161.265C109.138 160.758 108.97 160.262 108.651 159.851C108.269 159.379 107.799 158.975 107.262 158.658C106.042 157.978 104.778 157.366 103.479 156.826C102.04 156.241 100.692 155.481 99.4679 154.568C98.5882 153.871 97.8618 153.023 97.3284 152.07C96.7705 151.038 96.4919 149.895 96.5165 148.741C96.5165 146.348 97.392 144.467 99.1431 143.097C100.894 141.728 103.314 141.043 106.402 141.043C107.867 141.036 109.327 141.204 110.746 141.544C112.226 141.915 113.672 142.392 115.073 142.969L113.076 147.431C111.821 146.934 110.529 146.519 109.211 146.19C108.229 145.961 107.22 145.843 106.207 145.84C105.035 145.84 104.137 146.091 103.511 146.592C103.205 146.837 102.962 147.142 102.8 147.485C102.638 147.828 102.56 148.201 102.574 148.575C102.562 149.041 102.693 149.5 102.951 149.899C103.274 150.335 103.688 150.706 104.169 150.991C105.436 151.687 106.745 152.316 108.091 152.872C110.824 154.078 112.696 155.289 113.705 156.506C114.741 157.798 115.272 159.378 115.211 160.987Z" fill="white"/>
<path d="M131.938 168.478H125.743V146.196H117.812V141.44H139.873V146.215H131.938V168.478Z" fill="white"/>
<path d="M171.015 154.95C171.015 159.424 169.823 162.864 167.437 165.27C165.051 167.676 161.63 168.878 157.174 168.876C152.723 168.876 149.302 167.674 146.911 165.27C144.52 162.866 143.327 159.414 143.332 154.912C143.332 150.401 144.529 146.964 146.923 144.603C149.317 142.242 152.747 141.056 157.214 141.043C161.681 141.043 165.099 142.239 167.469 144.63C169.839 147.021 171.021 150.461 171.015 154.95ZM149.794 154.95C149.794 157.958 150.41 160.232 151.642 161.774C152.874 163.315 154.717 164.08 157.17 164.067C162.09 164.067 164.55 161.028 164.55 154.95C164.55 148.872 162.103 145.826 157.21 145.814C154.76 145.814 152.91 146.581 151.662 148.115C150.414 149.649 149.791 151.927 149.794 154.95Z" fill="white"/>
<path d="M183.703 158.086V168.459H177.504V141.44H186.041C190.013 141.44 192.953 142.11 194.858 143.448C196.763 144.787 197.711 146.817 197.703 149.539C197.729 151.058 197.232 152.544 196.285 153.784C195.262 155.081 193.87 156.09 192.264 156.698C196.665 162.777 199.531 166.703 200.862 168.478H193.984L187.004 158.086H183.703ZM183.703 153.423H185.703C187.663 153.423 189.108 153.121 190.041 152.517C190.976 151.916 191.443 150.964 191.443 149.671C191.443 148.377 190.967 147.475 190.012 146.934C189.057 146.392 187.573 146.118 185.585 146.118H183.703V153.423Z" fill="white"/>
<defs>
<filter id="filter0_d_1756_9917" x="0.589844" y="7.30957" width="202.121" height="129.013" filterUnits="userSpaceOnUse" color-interpolation-filters="sRGB">
<feFlood flood-opacity="0" result="BackgroundImageFix"/>
<feColorMatrix in="SourceAlpha" type="matrix" values="0 0 0 0 0 0 0 0 0 0 0 0 0 0 0 0 0 0 127 0" result="hardAlpha"/>
<feOffset dx="2" dy="2"/>
<feComposite in2="hardAlpha" operator="out"/>
<feColorMatrix type="matrix" values="0 0 0 0 1 0 0 0 0 1 0 0 0 0 1 0 0 0 1 0"/>
<feBlend mode="normal" in2="BackgroundImageFix" result="effect1_dropShadow_1756_9917"/>
<feBlend mode="normal" in="SourceGraphic" in2="effect1_dropShadow_1756_9917" result="shape"/>
</filter>
</defs>
</svg>
