<svg width="459" height="88" viewBox="0 0 459 88" fill="none" xmlns="http://www.w3.org/2000/svg">
<path d="M133.969 53.6605V6.5542H144.101V53.6605H133.969Z" fill="#231F20"/>
<path d="M198.516 53.6605H185.639L164.85 18.0245H164.557C164.969 24.322 165.175 28.8114 165.175 31.4928V53.6605H156.126V6.5542H168.903L189.659 41.8365H189.885C189.557 35.7224 189.393 31.3946 189.393 28.8529V6.5804H198.516V53.6605Z" fill="#231F20"/>
<path d="M237.797 6.5542H248.029L231.784 53.6605H220.734L204.529 6.5542H214.755L223.744 34.5848C224.245 36.2443 224.761 38.1724 225.292 40.3691C225.824 42.5658 226.156 44.0943 226.289 44.9546C226.884 41.4485 227.703 37.9828 228.741 34.5782L237.797 6.5542Z" fill="#231F20"/>
<path d="M281.558 53.6605H254.044V6.5542H281.558V14.7361H264.17V25.0797H280.348V33.2615H264.17V45.4132H281.558V53.6605Z" fill="#231F20"/>
<path d="M319.727 40.5789C319.727 44.8326 318.177 48.1843 315.076 50.6343C311.976 53.0843 307.657 54.3071 302.12 54.3027C297.451 54.3941 292.822 53.4258 288.593 51.4728V42.1904C291.237 43.3985 293.974 44.3995 296.778 45.1841C298.774 45.7333 300.833 46.0261 302.904 46.0554C305.13 46.0554 306.831 45.6361 308.02 44.7976C308.608 44.3744 309.078 43.8126 309.388 43.1636C309.698 42.5147 309.838 41.7994 309.794 41.0833C309.81 40.1923 309.53 39.3206 308.997 38.6006C308.367 37.7702 307.59 37.058 306.705 36.4978C304.706 35.3162 302.638 34.2509 300.512 33.3076C298.159 32.2969 295.95 30.9865 293.941 29.4099C292.506 28.1932 291.319 26.7167 290.446 25.0603C289.535 23.2619 289.079 21.2728 289.118 19.2629C289.118 15.0966 290.551 11.8212 293.416 9.43675C296.282 7.05229 300.242 5.86005 305.296 5.86005C307.694 5.85135 310.083 6.14413 312.406 6.7313C314.824 7.36937 317.19 8.1884 319.482 9.18127L316.213 16.9504C314.159 16.0829 312.045 15.3605 309.887 14.7887C308.291 14.4082 306.653 14.2191 305.011 14.2253C303.088 14.2253 301.618 14.6621 300.599 15.5355C300.095 15.9555 299.693 16.4811 299.422 17.0738C299.151 17.6665 299.017 18.3114 299.031 18.9615C299.012 19.7702 299.226 20.5675 299.649 21.2608C300.173 22.0226 300.852 22.6693 301.642 23.1605C303.713 24.3775 305.856 25.4713 308.06 26.4359C312.534 28.5365 315.597 30.6458 317.249 32.7639C318.952 35.0157 319.826 37.772 319.727 40.5789Z" fill="#231F20"/>
<path d="M346.822 53.66H336.69V14.8797H323.714V6.55371H359.798V14.8797H346.822V53.66Z" fill="#231F20"/>
<path d="M410.519 30.0456C410.519 37.841 408.557 43.8327 404.632 48.0208C400.708 52.2089 395.087 54.303 387.769 54.303C380.456 54.303 374.835 52.2089 370.906 48.0208C366.978 43.8327 365.018 37.8192 365.026 29.9801C365.026 22.1192 366.993 16.1297 370.926 12.0114C374.86 7.89322 380.496 5.82755 387.836 5.81445C395.18 5.81445 400.796 7.89759 404.686 12.0639C408.575 16.2301 410.519 22.224 410.519 30.0456ZM375.644 30.0456C375.644 35.2862 376.658 39.2494 378.687 41.9352C380.716 44.621 383.743 45.953 387.769 45.9312C395.858 45.9312 399.899 40.636 399.895 30.0456C399.891 19.4553 395.871 14.1492 387.836 14.1273C383.805 14.1273 380.766 15.4637 378.72 18.1364C376.674 20.8091 375.648 24.7788 375.644 30.0456Z" fill="#231F20"/>
<path d="M430.585 35.5871V53.6605H420.419V6.5542H434.372C440.861 6.5542 445.665 7.71805 448.783 10.0457C451.901 12.3734 453.452 15.913 453.434 20.6645C453.475 23.3097 452.663 25.8995 451.115 28.0603C449.442 30.3206 447.165 32.0782 444.537 33.1371C451.726 43.7231 456.41 50.5642 458.59 53.6605H447.348L435.946 35.5871H430.585ZM430.585 27.4641H433.853C437.056 27.4641 439.419 26.9379 440.943 25.8854C442.467 24.8329 443.222 23.18 443.208 20.9265C443.208 18.6927 442.424 17.1009 440.87 16.1576C439.315 15.2143 436.883 14.7361 433.628 14.7361H430.585V27.4641Z" fill="#231F20"/>
<path d="M0.589844 86.1001H21.8747V5.81445H0.589844V86.1001ZM30.4373 5.81445V86.1001H51.7375V52.3788H64.8931V37.1054H51.7375V21.8872H66.5113V5.81445H30.4373ZM101.424 5.81445V41.9661L89.4835 5.81445H71.6735V86.1001H89.4835V49.6016L100.562 86.1001H119.234V5.81445H101.424Z" fill="#800000"/>
<path d="M101.672 12.0759L117.255 1.09593L125.407 18.1266L117.174 16.0269L117.037 15.9921L116.994 16.1261L102.838 59.9132L102.838 59.9133L101.582 63.8056L100.105 60.0702L100.105 60.0701L92.0035 39.5589L91.8692 39.2189L91.726 39.5552L78.616 70.343L90.5752 34.947L90.5752 34.947L91.8136 31.2762L93.2606 34.9365L93.2606 34.9366L100.859 54.1785L101.041 54.6388L101.145 54.1551L109.749 14.2837L109.779 14.1424L109.639 14.1067L101.672 12.0759Z" fill="white" stroke="#800000" stroke-width="0.3"/>
<path d="M134.122 72.2085H136.065V86.9335H134.122V72.2085Z" fill="#024C2B"/>
<path d="M150.024 87.1371C149.31 87.1371 148.617 87.0523 147.946 86.8826C147.274 86.706 146.665 86.4447 146.119 86.0984C145.573 85.7522 145.118 85.3245 144.754 84.8154C144.397 84.2994 144.173 83.702 144.082 83.0231H146.119C146.245 83.5798 146.493 84.0482 146.864 84.4284C147.242 84.8086 147.701 85.0937 148.24 85.2838C148.785 85.4739 149.377 85.5689 150.014 85.5689C150.728 85.5689 151.365 85.4739 151.925 85.2838C152.492 85.0869 152.936 84.8086 153.258 84.4488C153.587 84.089 153.752 83.6579 153.752 83.1555C153.752 82.7142 153.647 82.3307 153.437 82.0048C153.234 81.6789 152.936 81.4074 152.544 81.1901C152.152 80.9729 151.676 80.8032 151.116 80.681L148.135 80.0089C147.015 79.7713 146.136 79.347 145.499 78.736C144.869 78.125 144.547 77.3171 144.533 76.3124C144.533 75.4638 144.764 74.717 145.226 74.0721C145.695 73.4271 146.336 72.9248 147.148 72.565C147.967 72.2052 148.901 72.0252 149.951 72.0252C151.162 72.0252 152.18 72.2255 153.006 72.6261C153.832 73.0266 154.455 73.5527 154.875 74.2045C155.295 74.8562 155.509 75.552 155.516 76.292H153.51C153.447 75.6267 153.244 75.1006 152.901 74.7136C152.565 74.3199 152.142 74.0415 151.631 73.8786C151.12 73.7089 150.563 73.624 149.961 73.624C149.527 73.624 149.107 73.6783 148.701 73.7869C148.303 73.8888 147.942 74.0449 147.62 74.2554C147.305 74.4658 147.053 74.7272 146.864 75.0395C146.675 75.3518 146.581 75.715 146.581 76.1291C146.581 76.6586 146.766 77.0897 147.137 77.4224C147.515 77.755 148.198 78.0401 149.184 78.2777L152.072 78.9498C152.828 79.106 153.444 79.3368 153.92 79.6423C154.403 79.9478 154.774 80.294 155.033 80.681C155.299 81.0679 155.481 81.4719 155.579 81.8928C155.684 82.3137 155.736 82.7278 155.736 83.1351C155.736 83.8751 155.509 84.5506 155.054 85.1616C154.599 85.7658 153.944 86.2478 153.09 86.6076C152.243 86.9606 151.221 87.1371 150.024 87.1371Z" fill="#024C2B"/>
<path d="M163.768 72.2085H165.752V85.2431H172.924V86.9335H163.758L163.768 72.2085Z" fill="#024C2B"/>
<path d="M179.851 86.9335L185.342 72.2085H187.537L193.028 86.9335H191.044L189.553 82.9009H183.347L181.825 86.9335H179.851ZM183.841 81.1698H189.038L186.455 74.0721L183.841 81.1698Z" fill="#024C2B"/>
<path d="M200.694 86.9335V72.2085H203.382L207.959 84.3673L212.6 72.2085H215.278V86.9335H213.272V75.0293L208.873 86.9335H207.056L202.689 75.1413V86.9335H200.694Z" fill="#024C2B"/>
<path d="M224.094 72.2085H226.036V86.9335H224.094V72.2085Z" fill="#024C2B"/>
<path d="M240.426 72.0049C241.497 72.0049 242.446 72.2221 243.272 72.6566C244.098 73.0843 244.763 73.658 245.267 74.3776C245.771 75.0972 246.068 75.8881 246.159 76.7503H244.091C243.979 76.1732 243.765 75.6505 243.45 75.182C243.135 74.7136 242.722 74.3402 242.211 74.0619C241.7 73.7836 241.088 73.6444 240.374 73.6444C239.457 73.6444 238.68 73.8548 238.043 74.2757C237.413 74.6899 236.934 75.3314 236.605 76.2004C236.283 77.0693 236.122 78.1827 236.122 79.5405C236.122 81.5907 236.482 83.0978 237.203 84.0618C237.931 85.019 238.988 85.4976 240.374 85.4976C241.088 85.4976 241.7 85.3517 242.211 85.0598C242.722 84.7678 243.135 84.3775 243.45 83.8887C243.765 83.3999 243.979 82.8704 244.091 82.3001H246.159C246.082 82.9247 245.907 83.5289 245.634 84.1127C245.368 84.6898 245.001 85.2057 244.532 85.6606C244.063 86.1154 243.485 86.4752 242.799 86.74C242.12 87.0048 241.329 87.1371 240.426 87.1371C239.062 87.1371 237.896 86.835 236.93 86.2308C235.971 85.6266 235.236 84.7577 234.725 83.6239C234.221 82.4902 233.969 81.1223 233.969 79.5201C233.969 77.9247 234.221 76.567 234.725 75.4468C235.229 74.3267 235.961 73.4747 236.92 72.8908C237.886 72.3002 239.055 72.0049 240.426 72.0049Z" fill="#024C2B"/>
<path d="M263.738 72.2085H265.68V86.9335H263.738V72.2085Z" fill="#024C2B"/>
<path d="M284.365 72.2085H286.308V86.9335H284.575L276.427 75.3246V86.9335H274.485V72.2085H276.343L284.365 83.6545V72.2085Z" fill="#024C2B"/>
<path d="M306.614 72.2085L301.227 86.9335H298.886L293.594 72.2085H295.515L300.062 84.7848L304.703 72.2085H306.614Z" fill="#024C2B"/>
<path d="M313.902 86.9335V72.2085H323.478L323.468 73.8684H315.855V78.6749H322.712V80.3246H315.845V85.2329L323.678 85.2532V86.9335H313.902Z" fill="#024C2B"/>
<path d="M336.962 87.1371C336.248 87.1371 335.555 87.0523 334.883 86.8826C334.211 86.706 333.602 86.4447 333.056 86.0984C332.51 85.7522 332.055 85.3245 331.691 84.8154C331.334 84.2994 331.11 83.702 331.019 83.0231H333.056C333.182 83.5798 333.43 84.0482 333.801 84.4284C334.179 84.8086 334.638 85.0937 335.177 85.2838C335.723 85.4739 336.314 85.5689 336.951 85.5689C337.665 85.5689 338.302 85.4739 338.862 85.2838C339.429 85.0869 339.874 84.8086 340.196 84.4488C340.525 84.089 340.689 83.6579 340.689 83.1555C340.689 82.7142 340.584 82.3307 340.374 82.0048C340.171 81.6789 339.874 81.4074 339.482 81.1901C339.09 80.9729 338.614 80.8032 338.054 80.681L335.072 80.0089C333.952 79.7713 333.073 79.347 332.436 78.736C331.806 78.125 331.484 77.3171 331.47 76.3124C331.47 75.4638 331.701 74.717 332.163 74.0721C332.632 73.4271 333.273 72.9248 334.085 72.565C334.904 72.2052 335.838 72.0252 336.888 72.0252C338.099 72.0252 339.118 72.2255 339.944 72.6261C340.77 73.0266 341.393 73.5527 341.813 74.2045C342.233 74.8562 342.446 75.552 342.453 76.292H340.448C340.385 75.6267 340.182 75.1006 339.839 74.7136C339.503 74.3199 339.079 74.0415 338.568 73.8786C338.057 73.7089 337.501 73.624 336.899 73.624C336.465 73.624 336.045 73.6783 335.639 73.7869C335.24 73.8888 334.879 74.0449 334.557 74.2554C334.242 74.4658 333.99 74.7272 333.801 75.0395C333.612 75.3518 333.518 75.715 333.518 76.1291C333.518 76.6586 333.703 77.0897 334.074 77.4224C334.452 77.755 335.135 78.0401 336.122 78.2777L339.009 78.9498C339.765 79.106 340.381 79.3368 340.857 79.6423C341.34 79.9478 341.711 80.294 341.97 80.681C342.236 81.0679 342.418 81.4719 342.516 81.8928C342.621 82.3137 342.674 82.7278 342.674 83.1351C342.674 83.8751 342.446 84.5506 341.991 85.1616C341.536 85.7658 340.882 86.2478 340.028 86.6076C339.181 86.9606 338.159 87.1371 336.962 87.1371Z" fill="#024C2B"/>
<path d="M348.885 73.9397V72.2085H360.372V73.9397H355.742V86.9335H353.789V73.9397H348.885Z" fill="#024C2B"/>
<path d="M367.676 86.9335V72.2085H370.364L374.942 84.3673L379.583 72.2085H382.26V86.9335H380.255V75.0293L375.855 86.9335H374.039L369.671 75.1413V86.9335H367.676Z" fill="#024C2B"/>
<path d="M391.076 86.9335V72.2085H400.652L400.641 73.8684H393.029V78.6749H399.885V80.3246H393.018V85.2329L400.851 85.2532V86.9335H391.076Z" fill="#024C2B"/>
<path d="M419.045 72.2085H420.987V86.9335H419.255L411.107 75.3246V86.9335H409.165V72.2085H411.023L419.045 83.6545V72.2085Z" fill="#024C2B"/>
<path d="M428.274 73.9397V72.2085H439.76V73.9397H435.13V86.9335H433.177V73.9397H428.274Z" fill="#024C2B"/>
<path d="M452.24 87.1371C451.526 87.1371 450.833 87.0523 450.161 86.8826C449.49 86.706 448.881 86.4447 448.335 86.0984C447.789 85.7522 447.334 85.3245 446.97 84.8154C446.613 84.2994 446.389 83.702 446.298 83.0231H448.335C448.461 83.5798 448.709 84.0482 449.08 84.4284C449.458 84.8086 449.917 85.0937 450.455 85.2838C451.001 85.4739 451.593 85.5689 452.23 85.5689C452.944 85.5689 453.581 85.4739 454.141 85.2838C454.708 85.0869 455.152 84.8086 455.474 84.4488C455.803 84.089 455.968 83.6579 455.968 83.1555C455.968 82.7142 455.863 82.3307 455.653 82.0048C455.45 81.6789 455.152 81.4074 454.76 81.1901C454.368 80.9729 453.892 80.8032 453.332 80.681L450.35 80.0089C449.23 79.7713 448.352 79.347 447.715 78.736C447.085 78.125 446.763 77.3171 446.749 76.3124C446.749 75.4638 446.98 74.717 447.442 74.0721C447.911 73.4271 448.552 72.9248 449.364 72.565C450.182 72.2052 451.117 72.0252 452.167 72.0252C453.378 72.0252 454.396 72.2255 455.222 72.6261C456.048 73.0266 456.671 73.5527 457.091 74.2045C457.511 74.8562 457.725 75.552 457.732 76.292H455.726C455.663 75.6267 455.46 75.1006 455.117 74.7136C454.781 74.3199 454.358 74.0415 453.847 73.8786C453.336 73.7089 452.779 73.624 452.177 73.624C451.743 73.624 451.323 73.6783 450.917 73.7869C450.518 73.8888 450.158 74.0449 449.836 74.2554C449.521 74.4658 449.269 74.7272 449.08 75.0395C448.891 75.3518 448.797 75.715 448.797 76.1291C448.797 76.6586 448.982 77.0897 449.353 77.4224C449.731 77.755 450.413 78.0401 451.4 78.2777L454.288 78.9498C455.044 79.106 455.66 79.3368 456.136 79.6423C456.619 79.9478 456.99 80.294 457.249 80.681C457.515 81.0679 457.697 81.4719 457.795 81.8928C457.9 82.3137 457.952 82.7278 457.952 83.1351C457.952 83.8751 457.725 84.5506 457.27 85.1616C456.815 85.7658 456.16 86.2478 455.306 86.6076C454.459 86.9606 453.437 87.1371 452.24 87.1371Z" fill="#024C2B"/>
</svg>
