<svg width="173" height="30" viewBox="0 0 173 30" fill="none" xmlns="http://www.w3.org/2000/svg">
<g clip-path="url(#clip0_1756_8396)">
<path d="M20.3839 0.177672C20.3839 0.177672 8.92432 -0.610597 6.08234 12.0225V27.9123C6.08234 27.9123 5.21141 28.7006 4.45508 28.8665H8.92432C8.92432 28.8665 7.41165 28.4101 7.36582 26.2943V12.873C7.3429 12.873 8.51178 2.06537 20.3839 0.177672Z" fill="white"/>
<path d="M21.3701 0.281524C21.3701 0.281524 34.1132 1.46393 34.9154 13.5369C34.9154 13.5369 36.5426 26.9167 21.8743 29.0119C21.8743 29.0119 33.3798 29.6757 35.9926 18.1213C35.9926 18.1213 38.697 7.60413 29.2085 1.94104C29.1856 1.94104 25.8623 -0.403025 21.3701 0.281524Z" fill="white"/>
<path d="M17.3135 10.695V11.8981H23.6392V12.1678C23.6392 12.1678 24.9456 12.2093 25.0372 13.5161V9.18066C25.0372 9.18066 24.533 10.6327 23.685 10.6742L17.3135 10.695Z" fill="white"/>
<path d="M17.3135 17.9345V19.1376H23.6392V19.4073C23.6392 19.4073 24.9456 19.4488 25.0372 20.7556V16.3994C25.0372 16.3994 24.533 17.8515 23.685 17.893L17.3135 17.9345Z" fill="white"/>
<path d="M91.915 25.0084V0.696568H94.2299V4.14006C94.7112 2.93691 95.3758 1.98269 96.178 1.25665C96.9802 0.530617 97.9199 0.157227 98.9512 0.157227C100.097 0.157227 101.06 0.530617 101.793 1.2774C102.527 2.02418 103.054 3.08212 103.352 4.43047C104.589 1.58856 106.194 0.157227 108.188 0.157227C109.746 0.157227 110.915 0.821032 111.763 2.14864C112.588 3.497 113.024 5.55065 113.024 8.33033V25.0292H110.434V9.69943C110.434 8.06066 110.342 6.87826 110.159 6.15222C109.998 5.42618 109.677 4.84535 109.219 4.40973C108.761 3.95336 108.234 3.74592 107.615 3.74592C106.515 3.74592 105.598 4.32675 104.864 5.44693C104.154 6.58784 103.764 8.39256 103.764 10.9026V25.0084H101.174V9.22232C101.174 7.39685 100.968 6.02776 100.533 5.09428C100.097 4.18155 99.3867 3.72518 98.4012 3.72518C97.6448 3.72518 96.9573 4.03634 96.3384 4.63791C95.6967 5.23949 95.2383 6.13148 94.9633 7.31388C94.6883 8.49628 94.5507 10.1765 94.5507 12.3961V25.0084H91.915Z" fill="white"/>
<path d="M114.398 12.5826C114.398 8.18487 115.201 4.90733 116.782 2.79145C118.111 1.02822 119.716 0.13623 121.618 0.13623C123.749 0.13623 125.468 1.21491 126.821 3.35154C128.173 5.48816 128.838 8.45454 128.838 12.2299C128.838 15.2793 128.54 17.6856 127.944 19.4488C127.348 21.2121 126.477 22.5604 125.354 23.5354C124.231 24.5103 122.97 24.9874 121.618 24.9874C119.464 24.9874 117.722 23.9295 116.392 21.7929C115.063 19.677 114.398 16.5862 114.398 12.5826ZM117.08 12.5618C117.08 15.6112 117.515 17.893 118.363 19.4073C119.234 20.9216 120.312 21.6892 121.618 21.6892C122.924 21.6892 124.002 20.9216 124.873 19.4073C125.743 17.893 126.179 15.549 126.179 12.4374C126.179 9.49174 125.743 7.27214 124.873 5.73709C124.002 4.22278 122.924 3.45526 121.618 3.45526C120.312 3.45526 119.234 4.20204 118.363 5.71634C117.493 7.25139 117.08 9.51248 117.08 12.5618Z" fill="white"/>
<path d="M130.647 25.0084V0.696568H132.962V4.14006C134.085 1.48484 135.736 0.157227 137.867 0.157227C138.807 0.157227 139.655 0.426898 140.434 0.945495C141.213 1.46409 141.786 2.16939 142.176 3.01989C142.565 3.87039 142.84 4.88684 143.001 6.06924C143.093 6.83677 143.138 8.16438 143.138 10.0728V25.0292H140.457V10.2388C140.457 8.55851 140.365 7.31388 140.159 6.48412C139.953 5.65437 139.609 4.99056 139.082 4.49271C138.578 3.99485 137.959 3.74592 137.271 3.74592C136.171 3.74592 135.231 4.30601 134.429 5.40544C133.627 6.52561 133.237 8.64149 133.237 11.7531V25.0292H130.647V25.0084Z" fill="white"/>
<path d="M156.548 16.7936L159.161 17.3122C158.748 19.76 157.923 21.6477 156.754 22.996C155.562 24.3444 154.073 25.0082 152.239 25.0082C149.924 25.0082 148.114 23.9295 146.761 21.7929C145.409 19.6563 144.722 16.6484 144.722 12.79C144.722 8.78645 145.409 5.67486 146.761 3.45526C148.114 1.2564 149.901 0.13623 152.079 0.13623C154.187 0.13623 155.906 1.21491 157.236 3.39303C158.588 5.57114 159.23 8.59975 159.23 12.5411C159.23 12.79 159.23 13.1427 159.207 13.6198H147.38C147.472 16.2335 147.999 18.2457 148.893 19.6355C149.787 21.0254 150.91 21.7306 152.262 21.7306C153.248 21.7306 154.119 21.3365 154.829 20.569C155.562 19.76 156.135 18.5153 156.548 16.7936ZM147.472 10.3008H156.571C156.456 8.30933 156.09 6.79503 155.54 5.79932C154.669 4.24353 153.523 3.476 152.125 3.476C150.864 3.476 149.787 4.09832 148.916 5.34295C148.045 6.56685 147.564 8.22636 147.472 10.3008Z" fill="white"/>
<path d="M91.9145 26.5017H162.116C162.689 26.5017 163.147 26.3565 163.491 26.0453C163.835 25.7549 164.133 25.3193 164.339 24.78C164.5 24.3858 164.477 24.1784 164.454 23.9087L158.655 0.0117188H161.383L164.591 13.7234C165.004 15.4659 165.371 17.2914 165.714 19.2206C166.035 17.4574 166.379 15.6941 166.792 13.9309L170 0.0117188H172.59L166.906 24.2614C166.792 24.8629 166.769 25.0081 166.425 25.9831C165.966 27.3107 165.668 28.2857 165.004 28.6383C164.27 29.0532 163.468 28.9495 162.666 28.9495H88.5225C90.7915 28.9495 91.9145 26.5017 91.9145 26.5017Z" fill="white"/>
<path d="M42.5469 0.177734H52.4251C57.261 0.177734 57.261 3.62123 57.261 6.27645V9.36729C57.261 13.0182 56.1838 13.682 53.8002 14.2421C54.992 14.574 57.4444 15.3415 57.4444 19.1999V25.0497C57.4444 26.5018 57.5589 28.0161 58.5903 28.9081H53.1585C52.5855 27.8086 52.448 26.5847 52.448 25.7342V19.594C52.448 17.6441 52.448 16.2543 49.881 16.2543H47.5203V28.8873H42.5927V0.177734H42.5469ZM47.4745 12.1677H50.0644C52.2875 12.1677 52.3334 10.8609 52.3334 9.40878V6.69133C52.3334 4.32652 51.1416 4.32652 50.0644 4.32652H47.4745V12.1677Z" fill="white"/>
<path d="M60.0801 0.177734H73.0523V4.57545H65.0077V11.3172H72.571V15.6734H65.0077V24.4896H73.3961V28.9288H60.0801V0.177734Z" fill="white"/>
<path d="M74.9321 0.177734H82.9538C84.5582 0.177734 86.5292 0.177734 88.1565 1.96171C89.5775 3.51751 89.7608 5.46743 89.7608 7.74927V21.1706C89.7608 25.1534 89.1878 28.9081 82.908 28.9081H74.9092V0.177734H74.9321ZM79.9056 24.697C82.2433 24.697 82.61 24.697 83.0455 24.6141C84.8332 24.3444 84.8332 22.6641 84.8332 21.6062V7.2929C84.8332 4.72065 84.031 4.36801 81.8537 4.36801H79.9056V24.697Z" fill="white"/>
</g>
<defs>
<clipPath id="clip0_1756_8396">
<rect width="172" height="29" fill="white" transform="translate(0.589844 0.0117188)"/>
</clipPath>
</defs>
</svg>
